<?xml version='1.0' encoding='utf-8'?>
<!DOCTYPE svg PUBLIC '-//W3C//DTD SVG 1.1//EN' 'http://www.w3.org/Graphics/SVG/1.1/DTD/svg11.dtd'>
<svg version="1.1" xmlns="http://www.w3.org/2000/svg" viewBox="0 0 512 512" xmlns:xlink="http://www.w3.org/1999/xlink" enable-background="new 0 0 512 512">
  <g>
    <g>
      <path fill="#ffffff" d="m256,11.5c-88.4,0-177.9,21.9-177.9,63.5v79c0,41.6 89.5,63.5 177.9,63.5s177.9-21.8 177.9-63.5v-79c0-41.6-89.5-63.5-177.9-63.5zm0,20.8c95.7,0 157.1,25 157.1,42.7 0,17.7-61.4,42.7-157.1,42.7-95.7,0-157.1-25-157.1-42.7 0-17.7 61.4-42.7 157.1-42.7zm0,164.4c-95.7,0-157.1-25-157.1-42.7v-47.6c31.6,21.1 94.6,32 157.1,32s125.5-10.9 157.1-32v47.6c0,17.7-61.4,42.7-157.1,42.7z"/>
      <path fill="#ffffff" d="m256,259.1c-95.7,0-157.1-25-157.1-42.7h-20.8v79.1c0,41.6 89.5,63.5 177.9,63.5s177.9-21.8 177.9-63.5v-79.1h-20.8c5.68434e-14,17.8-61.4,42.7-157.1,42.7zm157.1,36.4c0,17.7-61.4,42.7-157.1,42.7-95.7,0-157.1-25-157.1-42.7v-47.9c62.4,42.7 251.8,42.7 314.2,0v47.9z"/>
      <path fill="#ffffff" d="m256,400.6c-95.7,0-157.1-25-157.1-42.7h-20.8v79.1c0,41.6 89.5,63.5 177.9,63.5s177.9-21.8 177.9-63.5v-79h-20.8c5.68434e-14,17.6-61.4,42.6-157.1,42.6zm157.1,36.4c0,17.7-61.4,42.7-157.1,42.7-95.7,0-157.1-25-157.1-42.7v-47.9c62.4,42.7 251.8,42.7 314.2,0v47.9z"/>
    </g>
  </g>
</svg>
